HIERARCHY
ROOT Hips
{
	OFFSET 0.00000 0.00000 0.00000
	CHANNELS 6 Xposition Yposition Zposition Zrotation Yrotation Xrotation 
	JOINT LHipJoint
	{
		OFFSET 0 0 0
		CHANNELS 3 Zrotation Yrotation Xrotation
		JOINT LeftHip
		{
			OFFSET 1.56857 -1.73443 1.15205
			CHANNELS 3 Zrotation Yrotation Xrotation
			JOINT LeftKnee
			{
				OFFSET 2.39362 -6.57643 0.00000
				CHANNELS 3 Zrotation Yrotation Xrotation
				JOINT LeftAnkle
				{
					OFFSET 2.50952 -6.89485 0.00000
					CHANNELS 3 Zrotation Yrotation Xrotation
					JOINT LeftToe
					{
						OFFSET 0.17171 -0.47178 1.88682
						CHANNELS 3 Zrotation Yrotation Xrotation
						End Site
						{
							OFFSET 0.00000 -0.00000 0.98146
						}
					}
				}
			}
		}
	}
	JOINT RHipJoint
	{
		OFFSET 0 0 0
		CHANNELS 3 Zrotation Yrotation Xrotation
		JOINT RightHip
		{
			OFFSET -1.28153 -1.73443 1.15205
			CHANNELS 3 Zrotation Yrotation Xrotation
			JOINT RightKnee
			{
				OFFSET -2.26861 -6.23296 0.00000
				CHANNELS 3 Zrotation Yrotation Xrotation
				JOINT RightAnkle
				{
					OFFSET -2.54143 -6.98254 0.00000
					CHANNELS 3 Zrotation Yrotation Xrotation
					JOINT RightToe
					{
						OFFSET -0.23309 -0.64041 1.93119
						CHANNELS 3 Zrotation Yrotation Xrotation
						End Site
						{
							OFFSET -0.00000 -0.00000 1.02013
						}
					}
				}
			}
		}
	}
	JOINT lowerback
	{
		OFFSET 0 0 0
		CHANNELS 3 Zrotation Yrotation Xrotation
		JOINT Chest
		{
			OFFSET -0.07096 2.10460 -0.27878
			CHANNELS 3 Zrotation Yrotation Xrotation
			JOINT Chest2
			{
				OFFSET -0.00826 2.13662 -0.08279
				CHANNELS 3 Zrotation Yrotation Xrotation
				JOINT lowerneck
				{
					OFFSET 0 0 0
					CHANNELS 3 Zrotation Yrotation Xrotation
					JOINT Neck
					{
						OFFSET 0.03239 1.77799 0.24435
						CHANNELS 3 Zrotation Yrotation Xrotation
						JOINT Head
						{
							OFFSET 0.01026 1.74194 -0.49664
							CHANNELS 3 Zrotation Yrotation Xrotation
							End Site
							{
								OFFSET 0.00170 1.83057 -0.19653
							}
						}
					}
				}
				JOINT LeftCollar
				{
					OFFSET 0 0 0
					CHANNELS 3 Zrotation Yrotation Xrotation
					JOINT LeftShoulder
					{
						OFFSET 3.19178 1.35907 -0.31412
CHANNELS 3 Zrotation Xrotation Yrotation
						JOINT LeftElbow
						{
OFFSET 0 -4.852470 -0.000000
CHANNELS 3 Zrotation Xrotation Yrotation
							JOINT LeftWrist
							{
OFFSET 0 -3.555840 0.000000
CHANNELS 3 Zrotation Xrotation Yrotation
								JOINT lhand
								{
									OFFSET 0 0 0
CHANNELS 3 Zrotation Xrotation Yrotation
									JOINT LFingers
									{
OFFSET 0 -0.693200 0.000000
CHANNELS 3 Zrotation Xrotation Yrotation
										End Site
										{
OFFSET 0 -0.558880 0.000000
										}
									}
								}
								JOINT LThumb
								{
OFFSET 0 0.000000 0.000000
CHANNELS 3 Zrotation Xrotation Yrotation
									End Site
									{
OFFSET 0 -0.567410 0.567410
									}
								}
							}
						}
					}
				}
				JOINT RightCollar
				{
					OFFSET 0 0 0
					CHANNELS 3 Zrotation Yrotation Xrotation
					JOINT RightShoulder
					{
						OFFSET -3.28999 1.24191 -0.26899
CHANNELS 3 Zrotation Xrotation Yrotation
						JOINT RightElbow
						{
OFFSET 0 -4.644620 0.000000
CHANNELS 3 Zrotation Xrotation Yrotation
							JOINT RightWrist
							{
OFFSET 0 -3.407030 0.000000
CHANNELS 3 Zrotation Xrotation Yrotation
								JOINT rhand
								{
									OFFSET 0 0 0
CHANNELS 3 Zrotation Xrotation Yrotation
									JOINT RFingers
									{
OFFSET 0 -0.619580 0.000000
CHANNELS 3 Zrotation Xrotation Yrotation
										End Site
										{
OFFSET 0 -0.499520 0.000000
										}
									}
								}
								JOINT RThumb
								{
OFFSET 0 0.000000 0.000000
CHANNELS 3 Zrotation Xrotation Yrotation
									End Site
									{
OFFSET 0 -0.507150 0.507150
									}
								}
							}
						}
					}
				}
			}
		}
	}
}
MOTION
Frames: 4
Frame Time: 0.008333333333333333
42.601532 16.912868 -1.654087 493.139511 81.305458 480.710723 0.000000 0.000000 0.000000 -25.455811 5.154694 7.914623 1.618594 8.021425 22.779403 0.919510 -2.300627 -17.491669 0.169373 2.651003 7.308574 0.000000 0.000000 0.000000 8.547161 2.313475 -5.246437 -1.699290 -8.208566 23.349907 -0.549147 -2.280231 -15.008321 -0.507070 -3.935900 10.955190 -11.265832 -0.149336 12.836757 -1.797477 -1.635324 2.508882 4.697112 -0.608932 -4.260859 0.132884 0.872561 -25.509165 0.693187 1.058941 23.046153 0.427323 0.614686 11.770085 0.000000 0.000000 0.000000 19.295494 -16.119950 -53.750328 74.447671 -59.065994 46.573522 27.508454 -25.954389 26.803856 0.000000 0.000000 0.000000 -7.125000 0.000000 0.000000 -1.515010 0.322212 -1.507008 0.000000 0.000000 0.000000 -13.623086 33.881675 24.881493 -24.038885 -35.205067 -7.729101 -22.460276 -4.539788 33.187913 0.000000 0.000000 0.000000 7.125000 0.000000 0.000000 12.819520 64.831561 -6.222166
42.662651 16.889043 -1.632327 493.798472 81.514608 481.342272 0.000000 0.000000 0.000000 -24.999375 5.209541 7.984796 1.665780 8.131681 23.115107 0.951614 -2.521101 -17.759302 0.138515 2.382734 6.565331 0.000000 0.000000 0.000000 8.970291 2.217210 -4.830225 -1.647164 -8.088411 22.983202 -0.452703 -3.038927 -14.171815 -0.707172 -5.360365 14.942850 -11.044213 -0.096211 12.938656 -1.744122 -1.550645 2.494910 4.620071 -0.565435 -4.351291 0.111029 0.848999 -25.513170 0.686105 1.034376 22.955178 0.423252 0.599977 11.735884 0.000000 0.000000 0.000000 19.334236 -16.257193 -53.536775 74.472060 -59.069044 46.594459 27.453477 -25.666343 26.939185 0.000000 0.000000 0.000000 -7.125000 0.000000 0.000000 -1.568734 0.190685 -1.564159 0.000000 0.000000 0.000000 -13.538581 34.132106 24.464939 -23.791134 -34.941914 -7.586861 -22.225448 -4.264677 33.746145 0.000000 0.000000 0.000000 7.125000 0.000000 0.000000 13.545305 65.317437 -6.708009
42.726601 16.865577 -1.615194 494.672554 81.699361 482.185364 0.000000 0.000000 0.000000 -24.596760 5.244268 8.097532 1.710901 8.235896 23.433094 0.985051 -2.743650 -18.036678 0.099783 2.029936 5.588595 0.000000 0.000000 0.000000 9.329741 1.968471 -4.459180 -1.612797 -8.008083 22.738658 -0.381741 -3.542521 -13.516242 -0.773528 -5.586915 15.597359 -10.763207 -0.069176 12.959248 -1.702584 -1.476995 2.521535 4.496411 -0.534146 -4.353400 0.051172 0.828412 -25.507435 0.721156 1.015924 22.809384 0.441719 0.589986 11.678316 0.000000 0.000000 0.000000 19.378551 -16.486348 -53.342760 74.374304 -59.056896 46.510643 27.410956 -25.406856 27.044374 0.000000 0.000000 0.000000 -7.125000 0.000000 0.000000 -1.610375 0.088428 -1.608548 0.000000 0.000000 0.000000 -13.437022 34.319934 24.019656 -23.545049 -34.679303 -7.446099 -22.177587 -4.013341 33.941224 0.000000 0.000000 0.000000 7.125000 0.000000 0.000000 13.776119 65.493485 -6.880424
42.794122 16.841408 -1.609311 496.266576 81.847766 483.732710 0.000000 0.000000 0.000000 -24.294644 5.185635 8.313904 1.753101 8.331294 23.725171 1.023031 -2.939370 -18.356570 0.068517 1.669890 4.594714 0.000000 0.000000 0.000000 9.580577 1.397680 -4.267552 -1.614076 -8.011216 22.748121 -0.444978 -2.920769 -14.009218 -0.489379 -4.406200 12.235783 -10.275090 -0.109266 12.951767 -1.696638 -1.462033 2.553569 4.227736 -0.535745 -4.331980 -0.085979 0.814857 -25.416128 0.867578 1.005694 22.573638 0.514546 0.591840 11.569362 0.000000 0.000000 0.000000 19.463271 -16.878747 -53.287324 73.980946 -59.007534 46.173360 27.489219 -25.378659 26.974743 0.000000 0.000000 0.000000 -7.125000 0.000000 0.000000 -1.553084 0.144440 -1.549787 0.000000 0.000000 0.000000 -13.304091 34.518148 23.531859 -23.358408 -34.478084 -7.340278 -22.047022 -3.731878 34.254274 0.000000 0.000000 0.000000 7.125000 0.000000 0.000000 14.218967 65.759539 -7.193474
